<svg id="pistol-belt" enable-background="new 0 0 300 300" height="512" viewBox="0 0 300 300" width="512" xmlns="http://www.w3.org/2000/svg"><path d="m237.156 74.422c-1.984-3.953-6.781-5.531-10.734-3.578l-10.247 5.123c-2.111-6.127-5.864-12.969-12.519-19.623-9.047-9.047-43.211-26.344-69.656-26.344h-32c-4.422 0-8 3.578-8 8v56c0 2.766 1.438 5.336 3.789 6.797 2.352 1.453 5.289 1.602 7.781.359.21-.104 10.61-5.152 22.709-7.287-2.764 8.973-1.8 19.923 8.064 29.787 1.562 1.562 3.609 2.344 5.656 2.344s4.094-.781 5.656-2.344c3.125-3.125 3.125-8.188 0-11.312-7.622-7.622-4.469-14.785-1.709-18.581 6.615 1.411 12.514 4.863 16.146 11.909 1.422 2.75 4.219 4.328 7.117 4.328 1.234 0 2.484-.289 3.664-.891 3.922-2.023 5.461-6.852 3.438-10.781-13.616-26.398-44.827-23.64-66.311-16.297v-36.031h24c22.062 0 52.094 15.414 58.344 21.656 12.375 12.375 10.312 24.906 10.18 25.633-.883 4.289 1.859 8.5 6.148 9.422 4.367.945 8.586-1.82 9.508-6.133.046-.215.336-1.645.459-3.952l14.939-7.47c3.953-1.976 5.555-6.781 3.578-10.734z" fill="#000000"/><path d="m270 134h-40v-32c0-2.516-1.188-4.891-3.203-6.398-2.047-1.547-20.562-14.945-38.953-11.797-8.367 1.438-15.453 6.195-20.5 13.758-13.36 20.031-41.086 20.437-41.344 20.437-2.523 0-4.898 1.188-6.406 3.211-1.508 2.016-1.977 4.625-1.266 7.047l1.689 5.742h-90.017c-4.422 0-8 3.578-8 8v64c0 4.422 3.578 8 8 8h113.546l14.782 50.258c1 3.406 4.125 5.742 7.672 5.742h56c4.422 0 8-3.578 8-8v-48h40c4.422 0 8-3.578 8-8v-64c0-4.422-3.578-8-8-8zm-232 64v-48h86.723l14.118 48zm176 56h-42.016l-35.594-121.023c12.125-2.047 32.023-8.172 44.266-26.539 2.648-3.969 5.781-6.148 9.859-6.852 7.984-1.383 17.844 3.258 23.484 6.688v147.726zm48-56h-32v-48h32z"/><path d="m110 166h-8c0-4.422-3.578-8-8-8s-8 3.578-8 8h-8c0-4.422-3.578-8-8-8s-8 3.578-8 8h-8c-4.422 0-8 3.578-8 8s3.578 8 8 8h8c0 4.422 3.578 8 8 8s8-3.578 8-8h8c0 4.422 3.578 8 8 8s8-3.578 8-8h8c4.422 0 8-3.578 8-8s-3.578-8-8-8z"/><path d="m182 230h16v16h-16z"/><path d="m118 54h16v16h-16z" fill="#000000"/></svg>