<svg id="revolver" enable-background="new 0 0 300 300" height="512" viewBox="0 0 300 300" width="512" xmlns="http://www.w3.org/2000/svg"><path d="m195.198 160.359c-1.982-.551-3.973-.244-5.685.604.689-1.703.89-3.621.263-5.502-1.398-4.188-5.891-6.469-10.117-5.055l-24 8c-4.188 1.391-6.453 5.922-5.055 10.117.11.331.321.591.469.896l-6.82-1.92c-2.289-.641-4.188-2.133-5.352-4.211-1.156-2.07-1.445-4.469-.797-6.766l6.258-22.234c1.195-4.25-1.281-8.664-5.539-9.867-4.195-1.172-8.664 1.289-9.867 5.539l-6.258 22.227c-1.805 6.406-1 13.125 2.25 18.93 3.258 5.805 8.57 9.992 14.969 11.789l29.078 8.188c2.242.633 4.508.93 6.727.93 10.883 0 20.898-7.195 23.984-18.156l1.023-3.633c1.196-4.259-1.281-8.673-5.531-9.876zm-10.898 9.172c-1.328 4.727-6.273 7.508-10.969 6.156l-10.266-2.891 21.656-7.219c.412-.137.71-.427 1.083-.621-.142.326-.382.582-.482.934z" fill="#000000"/><path d="m238.198 133.992c-.32 0-.648-.016-.969-.055-4.391-.539-7.516-4.523-6.984-8.906 1.414-11.609 9.672-19.508 23.266-22.242 8.867-1.773 17.305-.773 17.648-.734 4.391.531 7.508 4.523 6.969 8.906-.531 4.375-4.617 7.477-8.891 6.977-.461-.07-21.75-2.164-23.102 9.016-.499 4.061-3.945 7.038-7.937 7.038z" fill="#000000"/><path d="m245.8 121.281-2.292-.645 2.167-7.699c4.781-16.977-5.148-34.688-22.141-39.477l-49.805-14.016c-4.203-1.172-8.662 1.28-9.866 5.537l-123.22-34.676c-2.055-.57-4.234-.312-6.078.727-1.852 1.039-3.211 2.766-3.789 4.813l-8.664 30.805c-1.195 4.25 1.281 8.672 5.539 9.867l76.998 21.67-6.498 23.104c-1.195 4.25 1.281 8.664 5.539 9.867l43.643 12.284c.868.271 1.944.656 2.833.908l9.818 3.202c18.171 8.092 34.237 28.441 30.927 46.132-4.949 6.065-8.823 13.253-11.088 21.294l-5.398 19.195c-1.102 3.938.938 8.07 4.727 9.594l64.062 25.656c.961.383 1.969.57 2.977.57 1.453 0 2.906-.398 4.18-1.18 2.156-1.32 3.562-3.578 3.789-6.094l7.934-87.271 4.262-15.143c4.772-16.985-4.447-34.493-20.556-39.024zm-15.532-12.68-6.648 23.617c-1.156 4.109-3.844 7.531-7.57 9.617s-8.039 2.602-12.156 1.445h-.008l-38.587-10.855c-1.135-.478-2.273-.916-3.42-1.322l6.546-23.266c.002-.006.006-.012.008-.018.001-.006 0-.011.001-.016l8.663-30.789 42.102 11.852c8.499 2.392 13.46 11.243 11.069 19.735zm-186.257-60.726 115.517 32.512-4.333 15.396-38.513-10.838c-.006-.002-.013 0-.019-.002l-76.981-21.662zm76.038 54.644 30.811 8.671-4.333 15.399-30.804-8.668zm119.149 148.051-47.422-18.992 3.453-12.266c1.555-5.52 4.192-10.535 7.549-14.807 1.025-.721 1.817-1.716 2.418-2.869 4.62-4.871 10.315-8.413 16.533-9.988l23.438-6.734zm-21.641-74.367c-3.855.977-7.513 2.521-10.998 4.41-1.493-7.99-4.986-15.742-9.913-22.742l2.903.816c2.883.805 5.812 1.211 8.727 1.211 5.406 0 10.75-1.391 15.602-4.109 7.453-4.18 12.836-11.016 15.148-19.234l.145-.514 2.301.646c7.609 2.141 11.867 10.797 9.477 19.281l-3.254 11.568z"/></svg>